<svg width="50" height="50" viewBox="0 0 50 50" fill="none" xmlns="http://www.w3.org/2000/svg">
<g clip-path="url(#clip0)">
<path d="M36.269 48.334H28.7721V38.2946C31.568 38.0896 34.1845 36.8409 36.1027 34.7962C37.9826 32.8301 38.9498 30.1643 38.768 27.4502C38.7106 26.6302 38.574 25.5739 38.4284 24.4513C38.1624 22.7048 37.998 20.9445 37.935 19.1792C38.0692 17.5608 38.3397 15.9567 38.7432 14.3838C38.8054 14.1349 38.7497 13.8709 38.5919 13.6688C38.4341 13.4666 38.1916 13.3483 37.935 13.3483H24.1617L24.3541 13.2368L26.5196 11.9873C26.9173 11.7567 27.0532 11.2471 26.823 10.8493C25.1574 7.97203 21.9422 6.35851 18.6395 6.74328C18.7261 6.45369 18.7721 6.15352 18.7761 5.85131C18.7761 4.01124 17.2846 2.51933 15.4441 2.51933C15.0724 2.5234 14.7035 2.59051 14.3537 2.71741L12.8052 0.3917C12.6446 0.134643 12.3566 -0.0150356 12.0536 0.00123379C11.7506 0.0175032 11.4805 0.19728 11.3487 0.470607C11.2165 0.743933 11.2438 1.06729 11.4191 1.31499L12.9688 3.64233C12.2635 4.41757 11.9686 5.4824 12.1748 6.51022C12.381 7.53804 13.0635 8.40642 14.0133 8.85017C11.1157 11.4862 10.4425 15.7834 12.3957 19.1792C12.5059 19.3704 12.6877 19.5103 12.9012 19.5672C13.1148 19.6246 13.3421 19.5945 13.5333 19.4843L17.7044 17.076C17.8325 17.7467 17.9126 18.4259 17.9431 19.1084C17.9366 19.1316 17.9309 19.1552 17.9265 19.1792C17.9301 19.204 17.9354 19.2284 17.9415 19.2524C17.8752 20.9945 17.7121 22.7316 17.4526 24.4554C17.307 25.5739 17.1703 26.6302 17.1126 27.4543C16.9312 30.1684 17.8984 32.8341 19.7783 34.8003C21.6961 36.845 24.3126 38.0941 27.1085 38.299V48.334H19.6091C19.1491 48.334 18.7761 48.707 18.7761 49.167C18.7761 49.627 19.1491 50 19.6091 50H36.269C36.729 50 37.102 49.627 37.102 49.167C37.102 48.707 36.729 48.334 36.269 48.334ZM22.5832 12.3355L20.8289 13.3483H17.9431C17.6865 13.3483 17.4445 13.4666 17.2867 13.6688C17.1288 13.8709 17.0727 14.1349 17.1354 14.3838C17.1354 14.3944 17.2342 14.7853 17.3595 15.3506L15.6585 16.3329C15.0301 14.455 15.8106 12.3945 17.5254 11.4045C19.2402 10.4145 21.415 10.7683 22.7272 12.2513L22.5832 12.3355ZM15.4441 4.18532C16.3642 4.18532 17.1101 4.93127 17.1101 5.85131C17.1101 6.77135 16.3642 7.5173 15.4441 7.5173C14.5241 7.5173 13.7782 6.77135 13.7782 5.85131C13.7782 4.93127 14.5241 4.18532 15.4441 4.18532ZM13.4666 17.5966C12.163 14.5009 13.3669 10.9184 16.2759 9.23901C19.1849 7.55919 22.8894 8.30718 24.9186 10.9843L24.1849 11.4081C22.3949 9.13082 19.2032 8.51543 16.6949 9.96341C14.1861 11.4118 13.1233 14.4839 14.2008 17.1724L13.4666 17.5966ZM21.2751 15.0142H36.8856C36.6347 16.1137 36.4451 17.2261 36.3174 18.3462H19.5607C19.496 17.6658 19.3704 16.8987 19.2345 16.1922L21.2751 15.0142ZM18.7761 27.5681C18.831 26.797 18.9653 25.7639 19.1092 24.6693C19.3069 23.1441 19.5168 21.4634 19.5835 20.0122H36.2991C36.3658 21.4634 36.5757 23.1441 36.773 24.6693C36.9157 25.7639 37.0495 26.797 37.1065 27.5681C37.2517 29.821 36.4447 32.0312 34.882 33.6606C33.0847 35.5816 30.5715 36.6721 27.9407 36.6721C25.3099 36.6721 22.7971 35.5816 20.9993 33.6606C19.4375 32.0312 18.6309 29.821 18.7761 27.5681Z" fill="url(#paint0_linear)"/>
<path d="M30.8037 24.0356C30.8505 24.0669 30.9013 24.0922 30.9546 24.1105C31.0042 24.1361 31.0579 24.1528 31.1128 24.1605C31.1653 24.1703 31.2182 24.1759 31.271 24.1772C31.3239 24.1759 31.3768 24.1703 31.4285 24.1605C31.4842 24.1528 31.5379 24.1357 31.5879 24.1105C31.6387 24.0938 31.6867 24.0686 31.7294 24.0356C31.7738 24.0063 31.8157 23.9726 31.8543 23.9356C32.0142 23.7802 32.104 23.5671 32.104 23.3442C32.104 23.1213 32.0142 22.9082 31.8543 22.7528C31.8157 22.7158 31.7738 22.682 31.7294 22.6527C31.6867 22.6198 31.6387 22.5946 31.5879 22.5779C31.5379 22.5527 31.4842 22.5356 31.4285 22.5279C31.3247 22.5026 31.2165 22.5026 31.1128 22.5279C31.0579 22.5356 31.0042 22.5523 30.9546 22.5779C30.9013 22.5962 30.8505 22.6214 30.8037 22.6527C30.7606 22.6836 30.7191 22.717 30.6797 22.7528C30.3575 23.0814 30.3575 23.6069 30.6797 23.9356L30.8037 24.0356Z" fill="url(#paint1_linear)"/>
<path d="M32.1707 29.4916C32.211 29.5937 32.2704 29.6868 32.3456 29.7665L32.4697 29.8666C32.5165 29.8979 32.5673 29.9231 32.6206 29.9414C32.6678 29.9654 32.7182 29.9825 32.7707 29.9915C32.8256 30.0008 32.8813 30.0065 32.937 30.0081C33.2754 30.0102 33.5817 29.8072 33.7115 29.4944C33.8412 29.1821 33.7688 28.8221 33.5284 28.5837C33.3291 28.3873 33.0448 28.3031 32.7707 28.3588C32.7182 28.3678 32.6678 28.3848 32.6206 28.4088C32.5673 28.4272 32.5165 28.4524 32.4697 28.4837C32.4266 28.5146 32.3851 28.548 32.3456 28.5837C32.2688 28.6618 32.209 28.7558 32.1707 28.8587C32.0821 29.0604 32.0821 29.2898 32.1707 29.4916Z" fill="url(#paint2_linear)"/>
<path d="M24.8487 31.0827C24.5253 31.4085 24.527 31.9348 24.8519 32.259C25.1769 32.5832 25.7032 32.5832 26.0282 32.259C26.3536 31.9348 26.3548 31.4085 26.0315 31.0827C25.6976 30.7744 25.1826 30.7744 24.8487 31.0827Z" fill="url(#paint3_linear)"/>
<path d="M26.8563 26.0848C26.8201 26.0453 26.7778 26.0116 26.7315 25.9847C26.6888 25.9518 26.6408 25.9266 26.5899 25.9099C26.5399 25.8847 26.4862 25.8676 26.4305 25.8598C26.1588 25.8053 25.8777 25.8895 25.6809 26.0848C25.6073 26.1657 25.5483 26.2589 25.506 26.3597C25.4637 26.4598 25.4413 26.5676 25.4401 26.6762C25.438 26.8978 25.5251 27.111 25.6817 27.2676C25.8383 27.4246 26.0514 27.5116 26.2731 27.5092C26.326 27.5079 26.3788 27.5022 26.4305 27.4925C26.4862 27.4847 26.5399 27.4677 26.5899 27.4424C26.6408 27.4258 26.6888 27.4006 26.7315 27.3676C26.7758 27.3383 26.8177 27.3046 26.8563 27.2676C27.0142 27.111 27.1036 26.8986 27.1061 26.6762C27.102 26.4541 27.0125 26.2426 26.8563 26.0848Z" fill="url(#paint4_linear)"/>
<path d="M23.5325 22.7528C23.1986 22.4445 22.6836 22.4445 22.3497 22.7528C22.2745 22.8325 22.2151 22.9256 22.1748 23.0277C22.1321 23.1278 22.1097 23.2352 22.1081 23.3442C22.1061 23.6826 22.309 23.9884 22.6218 24.1182C22.9342 24.2479 23.2941 24.1759 23.5325 23.9356C23.6077 23.8558 23.6671 23.7627 23.7074 23.6606C23.7965 23.4589 23.7965 23.2295 23.7074 23.0277C23.6671 22.9256 23.6077 22.8325 23.5325 22.7528Z" fill="url(#paint5_linear)"/>
</g>
<defs>
<linearGradient id="paint0_linear" x1="25.0345" y1="51.0329" x2="25.0345" y2="-1.58233" gradientUnits="userSpaceOnUse">
<stop stop-color="#E93E3A"/>
<stop offset="0.354" stop-color="#ED683C"/>
<stop offset="0.709" stop-color="#F3903F"/>
<stop offset="1" stop-color="#FDC70C"/>
</linearGradient>
<linearGradient id="paint1_linear" x1="31.2712" y1="51.0329" x2="31.2712" y2="-1.58236" gradientUnits="userSpaceOnUse">
<stop stop-color="#E93E3A"/>
<stop offset="0.354" stop-color="#ED683C"/>
<stop offset="0.709" stop-color="#F3903F"/>
<stop offset="1" stop-color="#FDC70C"/>
</linearGradient>
<linearGradient id="paint2_linear" x1="32.9372" y1="51.033" x2="32.9372" y2="-1.58249" gradientUnits="userSpaceOnUse">
<stop stop-color="#E93E3A"/>
<stop offset="0.354" stop-color="#ED683C"/>
<stop offset="0.709" stop-color="#F3903F"/>
<stop offset="1" stop-color="#FDC70C"/>
</linearGradient>
<linearGradient id="paint3_linear" x1="25.4402" y1="51.0329" x2="25.4402" y2="-1.58232" gradientUnits="userSpaceOnUse">
<stop stop-color="#E93E3A"/>
<stop offset="0.354" stop-color="#ED683C"/>
<stop offset="0.709" stop-color="#F3903F"/>
<stop offset="1" stop-color="#FDC70C"/>
</linearGradient>
<linearGradient id="paint4_linear" x1="26.2732" y1="51.0328" x2="26.2732" y2="-1.58225" gradientUnits="userSpaceOnUse">
<stop stop-color="#E93E3A"/>
<stop offset="0.354" stop-color="#ED683C"/>
<stop offset="0.709" stop-color="#F3903F"/>
<stop offset="1" stop-color="#FDC70C"/>
</linearGradient>
<linearGradient id="paint5_linear" x1="22.9412" y1="51.0329" x2="22.9412" y2="-1.58236" gradientUnits="userSpaceOnUse">
<stop stop-color="#E93E3A"/>
<stop offset="0.354" stop-color="#ED683C"/>
<stop offset="0.709" stop-color="#F3903F"/>
<stop offset="1" stop-color="#FDC70C"/>
</linearGradient>
<clipPath id="clip0">
<rect width="50" height="50" fill="white"/>
</clipPath>
</defs>
</svg>
